<?xml version="1.0" encoding="utf-8"?>
<!-- Generator: Adobe Illustrator 16.0.0, SVG Export Plug-In . SVG Version: 6.00 Build 0)  -->
<!DOCTYPE svg PUBLIC "-//W3C//DTD SVG 1.1//EN" "http://www.w3.org/Graphics/SVG/1.1/DTD/svg11.dtd">
<svg version="1.1" id="Layer_1" xmlns="http://www.w3.org/2000/svg" xmlns:xlink="http://www.w3.org/1999/xlink" x="0px" y="0px"
	 width="300px" height="79px" viewBox="0 0 300 79" enable-background="new 0 0 300 79" xml:space="preserve" fill='#fff' >
<g>
	<path d="M126.251,61.452L97.541,23.401v28.171c0,2.335,0.115,3.872,0.345,4.61c0.229,0.738,0.883,1.418,1.961,2.037
		c1.078,0.618,2.695,0.928,4.85,0.928v1.377H89.548v-1.377c1.936-0.14,3.412-0.494,4.43-1.062c1.018-0.569,1.622-1.184,1.812-1.843
		c0.189-0.657,0.284-2.215,0.284-4.67V30.048c0-3.114-0.145-5.199-0.434-6.257c-0.29-1.058-0.749-1.736-1.377-2.036
		c-0.628-0.299-2.032-0.449-4.206-0.449v-1.377h11.976l24.039,31.764v-24.28c0-1.795-0.185-3.053-0.554-3.771
		c-0.369-0.719-1.122-1.288-2.259-1.706c-1.138-0.419-2.505-0.629-4.102-0.629v-1.377h14.729v1.377
		c-1.717,0.14-3.068,0.469-4.057,0.988c-0.987,0.519-1.617,1.143-1.886,1.871c-0.27,0.729-0.404,1.961-0.404,3.698v33.59H126.251z"
		/>
	<path d="M169.481,47.891h1.437l-0.867,12.634H136.43v-1.377h0.838c2.016,0,3.318-0.271,3.906-0.809
		c0.589-0.539,0.963-1.223,1.123-2.051s0.24-2.938,0.24-6.331V30.048c0-3.094-0.086-5.129-0.255-6.107
		c-0.17-0.978-0.56-1.662-1.168-2.051c-0.609-0.389-1.891-0.583-3.847-0.583v-1.377h29.009l0.958,10.119h-1.406
		c-0.639-2.833-1.422-4.845-2.351-6.033c-0.928-1.187-2.031-1.936-3.308-2.245c-1.278-0.309-3.334-0.464-6.167-0.464h-5.628V38.34
		h4.311c1.976,0,3.357-0.168,4.146-0.509c0.788-0.339,1.308-0.853,1.558-1.542c0.249-0.688,0.373-2.03,0.373-4.026h1.408v13.891
		h-1.408c0-2.256-0.189-3.768-0.568-4.535c-0.379-0.769-0.934-1.268-1.662-1.497c-0.728-0.229-1.96-0.345-3.695-0.345h-4.461v9.61
		c0,4.811,0.308,7.639,0.927,8.487c0.619,0.848,2.285,1.272,5,1.272h3.023c2.137,0,3.893-0.274,5.271-0.823
		c1.376-0.549,2.688-1.677,3.936-3.383C167.78,53.235,168.762,50.885,169.481,47.891"/>
	<path d="M215.106,61.513h-1.348l-12.364-33.47l-10.807,33.47h-1.438l-9.789-31.615c-0.878-2.874-1.512-4.785-1.9-5.733
		c-0.39-0.947-0.897-1.646-1.526-2.095c-0.63-0.449-1.672-0.704-3.129-0.763v-1.377h15.237v1.377
		c-1.836,0.12-3.014,0.385-3.531,0.793c-0.521,0.409-0.779,0.983-0.779,1.722c0,0.658,0.42,2.345,1.258,5.059l7.245,23.651
		l10.598-32.603h1.677l11.915,32.603l6.197-21.556c0.817-2.914,1.228-4.82,1.228-5.718c0-2.634-1.407-3.952-4.222-3.952v-1.377
		h11.077v1.377c-1.637,0.12-2.854,0.724-3.652,1.811c-0.799,1.088-1.807,3.698-3.023,7.829L215.106,61.513z"/>
	<path d="M240.715,60.104V47.053h1.497c1.696,8.502,5.719,12.753,12.064,12.753c2.854,0,5.064-0.812,6.631-2.439
		c1.567-1.626,2.352-3.448,2.352-5.464c0-2.036-0.689-3.742-2.066-5.119c-1.377-1.357-3.892-2.814-7.545-4.371
		c-3.253-1.397-5.708-2.619-7.364-3.667c-1.656-1.048-2.948-2.41-3.877-4.086c-0.928-1.676-1.393-3.463-1.393-5.358
		c0-2.894,1.004-5.304,3.01-7.23c2.006-1.926,4.545-2.889,7.619-2.889c1.716,0,3.333,0.28,4.85,0.839
		c1.516,0.558,3.074,1.717,4.671,3.472c0.917-1.097,1.437-2.285,1.557-3.562h1.316v10.628h-1.316
		c-0.759-3.094-2.102-5.528-4.026-7.304c-1.927-1.776-4.157-2.665-6.691-2.665c-2.415,0-4.187,0.654-5.314,1.961
		c-1.127,1.307-1.691,2.739-1.691,4.296c0,1.876,0.709,3.462,2.126,4.76c1.396,1.317,3.922,2.794,7.573,4.43
		c3.493,1.556,6.033,2.81,7.62,3.758c1.586,0.948,2.858,2.26,3.816,3.936c0.958,1.677,1.438,3.613,1.438,5.809
		c0,3.474-1.158,6.298-3.474,8.473c-2.313,2.176-5.408,3.263-9.28,3.263c-4.45,0-8.163-1.706-11.136-5.119
		c-0.659,0.938-1.148,2.257-1.468,3.951H240.715z"/>
	<path d="M23.595,29.561h-1.409l0.214-9.989h40.323l0.214,9.989h-1.317c-0.47-2.737-1.114-4.713-1.93-5.929
		c-0.818-1.215-1.696-1.961-2.636-2.237c-0.94-0.276-2.543-0.413-4.811-0.413h-6.679v29.323c0,3.248,0.076,5.383,0.23,6.403
		c0.153,1.023,0.567,1.777,1.241,2.268c0.674,0.491,1.941,0.735,3.8,0.735h2.021v1.41H32.144v-1.41h2.146
		c1.776,0,3.007-0.224,3.692-0.674c0.684-0.448,1.123-1.148,1.317-2.099c0.194-0.949,0.292-3.161,0.292-6.634V20.982h-6.159
		c-2.676,0-4.474,0.127-5.393,0.382c-0.919,0.256-1.783,1.027-2.589,2.314C24.642,24.964,24.023,26.926,23.595,29.561"/>
	<polyline fill="none" stroke="#fff" stroke-miterlimit="10" points="7.229,37.729 7.229,6.029 77.894,6.029 77.894,37.729 	"/>
	<polyline fill="none" stroke="#fff" stroke-miterlimit="10" points="77.894,42.362 77.894,74.062 7.229,74.062 7.229,42.362 	
		"/>
</g>
</svg>
